<?xml version="1.0" encoding="UTF-8" standalone="no"?>
<!-- Created with Inkscape (http://www.inkscape.org/) -->

<svg
   width="383"
   height="64"
   viewBox="0 0 101.33541 16.933334"
   version="1.1"
   id="svg5"
   inkscape:version="1.2 (dc2aedaf03, 2022-05-15)"
   sodipodi:docname="outline_dark.svg"
   xml:space="preserve"
   xmlns:inkscape="http://www.inkscape.org/namespaces/inkscape"
   xmlns:sodipodi="http://sodipodi.sourceforge.net/DTD/sodipodi-0.dtd"
   xmlns="http://www.w3.org/2000/svg"
   xmlns:svg="http://www.w3.org/2000/svg"><sodipodi:namedview
     id="namedview7"
     pagecolor="#ffffff"
     bordercolor="#666666"
     borderopacity="1.0"
     inkscape:pageshadow="2"
     inkscape:pageopacity="0.0"
     inkscape:pagecheckerboard="0"
     inkscape:document-units="px"
     showgrid="false"
     units="px"
     width="64px"
     inkscape:zoom="2.7958565"
     inkscape:cx="182.4128"
     inkscape:cy="15.737575"
     inkscape:window-width="1920"
     inkscape:window-height="995"
     inkscape:window-x="0"
     inkscape:window-y="0"
     inkscape:window-maximized="1"
     inkscape:current-layer="layer3"
     inkscape:showpageshadow="2"
     inkscape:deskcolor="#d1d1d1"><inkscape:grid
       type="xygrid"
       id="grid9"
       enabled="true"
       originx="37.277887"
       originy="-0.011556842"
       dotted="true"
       spacingx="0.26458334"
       spacingy="0.26458334" /></sodipodi:namedview><defs
     id="defs2"><inkscape:path-effect
       effect="fill_between_many"
       method="originald"
       linkedpaths="#path28174,0,1"
       id="path-effect35015"
       is_visible="true"
       lpeversion="0"
       join="true"
       close="true"
       autoreverse="true"
       applied="false" /><inkscape:path-effect
       effect="fill_between_many"
       method="originald"
       linkedpaths="#path28174,0,1"
       id="path-effect32760"
       is_visible="true"
       lpeversion="0"
       join="true"
       close="true"
       autoreverse="true" /><inkscape:path-effect
       effect="fill_between_many"
       method="originald"
       linkedpaths="#path28174,0,1"
       id="path-effect32760-3"
       is_visible="true"
       lpeversion="0"
       join="true"
       close="true"
       autoreverse="true"
       applied="false" /></defs><g
     inkscape:groupmode="layer"
     id="layer3"
     inkscape:label="Layer 3"
     transform="translate(37.277893,-0.01155684)"><path
       style="fill:#323c53;stroke:none;stroke-width:1.07302;stroke-linecap:round;stroke-dasharray:none;fill-opacity:0.75"
       d="m 172.2855,2.2885429 c -7.55957,0.066485 -15.14334,3.2950306 -20.15292,9.0100351 -1.49118,1.772772 -3.05415,3.373434 -5.55755,2.71962 -42.08688,0.141207 -84.176463,-0.06096 -126.261544,0.347782 -3.493022,-0.136605 -7.08236,0.428688 -9.914448,2.627638 -5.1555314,3.382876 -8.4686517,9.377717 -8.1251653,15.599256 0.018555,9.721071 9.4521563,18.002043 19.0668943,17.205669 42.568968,0.270339 85.139333,-0.180042 127.708623,-0.267239 4.6278,5.468503 10.55379,10.274669 17.7872,11.559377 9.61728,2.087175 20.25983,-1.024895 26.89597,-8.384335 1.56147,-1.145921 2.28888,-3.802663 4.60153,-3.139282 54.27164,-0.01364 108.54462,0.323536 162.81545,-0.0048 3.60662,0.0821 7.39351,-0.0063 10.45715,-2.190942 6.3136,-3.67819 10.01178,-11.317957 8.57716,-18.543764 C 379.13687,22.190307 373.72497,16.421094 367.27131,14.71837 354.91557,13.968248 342.51091,14.335619 330.13566,14.139504 285.44021,13.958405 240.74458,13.825188 196.04904,13.667687 191.04484,8.0572539 184.55869,3.2108701 176.84443,2.4862406 175.3326,2.3038724 173.8073,2.2451327 172.2855,2.2885429 Z M 342.78125,18.559831 c 1.1245,0.592096 0.33153,2.516733 0.61954,3.606718 -0.0517,7.583483 0.28854,15.197602 -0.20738,22.763221 -1.21561,0.389469 -0.69199,-1.864109 -0.89016,-2.565654 -0.0188,-7.845028 -0.36107,-15.730602 0.21044,-23.554194 0.0265,-0.116161 0.17291,-0.206219 0.26756,-0.250091 z"
       id="path3659"
       transform="matrix(0.26458333,0,0,0.26458333,-37.277893,0.01155684)" /><path
       style="color:#000000;fill:#1d0e08;stroke-linecap:round;fill-opacity:1"
       d="m 3.5507813,31.568359 a 0.39687499,0.39687499 0 0 0 -0.3964844,0.396485 c 1e-7,1.897298 1.0131413,3.652913 2.65625,4.601562 1.6431087,0.948649 3.6693912,0.948649 5.3125001,0 1.643109,-0.948649 2.65625,-2.704264 2.65625,-4.601562 a 0.39687499,0.39687499 0 0 0 -0.396484,-0.396485 0.39687499,0.39687499 0 0 0 -0.398438,0.396485 c 0,1.614992 -0.859188,3.106567 -2.257812,3.914062 -1.3986245,0.807496 -3.1209078,0.807496 -4.5195318,0 C 4.8084074,35.07141 3.9472658,33.579836 3.9472656,31.964844 A 0.39687499,0.39687499 0 0 0 3.5507813,31.568359 Z"
       id="path593"
       transform="rotate(90)" /><path
       style="color:#000000;fill:#1d0e08;stroke-linecap:round;fill-opacity:1"
       d="m -13.382813,58.277344 a 0.39687499,0.39687499 0 0 0 -0.396484,0.396484 c 0,1.897299 1.013141,3.652913 2.65625,4.601563 1.6431091,0.948649 3.6693911,0.948649 5.3125001,0 1.6431091,-0.94865 2.6562502,-2.704264 2.65625,-4.601563 a 0.39687499,0.39687499 0 0 0 -0.3964844,-0.396484 0.39687499,0.39687499 0 0 0 -0.3964843,0.396484 c 1e-7,1.614992 -0.8611414,3.106567 -2.2597656,3.914063 -1.3986242,0.807496 -3.1209072,0.807496 -4.5195318,0 -1.398624,-0.807497 -2.257812,-2.299071 -2.257812,-3.914063 a 0.39687499,0.39687499 0 0 0 -0.398438,-0.396484 z"
       id="path593-1"
       transform="rotate(-90)" /><path
       style="color:#000000;fill:#1d0e08;stroke-linecap:round;fill-opacity:1"
       d="M -1.9921875,-3.8730469 A 0.39687499,0.39687499 0 0 0 -2.546875,-3.78125 c -1.3123482,1.8414116 -3.5102921,2.9599498 -5.8730469,2.97460937 -2.3627551,0.0146597 -4.5761171,-1.07519757 -5.9140621,-2.90039067 a 0.39687499,0.39687499 0 0 0 -0.554688,-0.085937 0.39687499,0.39687499 0 0 0 -0.08594,0.5546875 c 1.495231,2.0397596 3.950721,3.24275521 6.5605465,3.22656255 2.6098256,-0.01619251 5.0467052,-1.25023045 6.5136719,-3.30859375 a 0.39687499,0.39687499 0 0 0 -0.091797,-0.5527344 z"
       id="path593-1-4"
       transform="scale(-1)" /><path
       style="color:#000000;fill:#1d0e08;stroke-linecap:round;fill-opacity:1"
       d="m 2.2695313,12.972656 a 0.39687499,0.39687499 0 0 0 -0.2968751,0.06641 0.39687499,0.39687499 0 0 0 -0.095703,0.554687 c 1.4798177,2.100234 3.9657072,3.349225 6.6191407,3.339844 2.6534331,-0.0094 5.1304861,-1.275949 6.5937501,-3.386719 A 0.39687499,0.39687499 0 0 0 14.988281,12.994141 0.39687499,0.39687499 0 0 0 14.4375,13.09375 c -1.308773,1.887916 -3.541073,3.036428 -5.9433594,3.044922 -2.402287,0.0085 -4.6449966,-1.123214 -5.96875,-3.001953 A 0.39687499,0.39687499 0 0 0 2.2695313,12.972656 Z"
       id="path593-1-4-9" /><path
       style="color:#000000;fill:#1d0e08;stroke-linecap:round;fill-opacity:1"
       d="m 14.796875,12.908203 a 0.39687499,0.39687499 0 0 0 -0.396484,0.394531 0.39687499,0.39687499 0 0 0 0.396484,0.398438 l 43.876953,0.07813 a 0.39687499,0.39687499 0 0 0 0.398438,-0.396484 0.39687499,0.39687499 0 0 0 -0.396485,-0.398438 z"
       id="path1635" /><path
       style="color:#000000;fill:#1d0e08;stroke-linecap:round;fill-opacity:1"
       d="m 14.666016,3.0761719 a 0.39687499,0.39687499 0 0 0 -0.398438,0.3964844 0.39687499,0.39687499 0 0 0 0.396485,0.3964843 l 44.009765,0.078125 A 0.39687499,0.39687499 0 0 0 59.072266,3.5527344 0.39687499,0.39687499 0 0 0 58.675781,3.1542969 Z"
       id="path1635-5" /><g
       id="path2681"
       style="fill:#1d0e08;fill-opacity:1"><path
         style="color:#000000;fill:#1d0e08;stroke-width:0.264583;fill-opacity:1"
         d="m -31.81541,13.349823 a 0.00334245,0.00334245 0 0 1 -0.0033,0.0033 0.00334245,0.00334245 0 0 1 -0.0033,-0.0033 0.00334245,0.00334245 0 0 1 0.0033,-0.0033 0.00334245,0.00334245 0 0 1 0.0033,0.0033 z"
         id="path2950" /><path
         style="color:#000000;fill:#1d0e08;fill-opacity:1"
         d="m -31.820312,13.214844 c -4.54e-4,5e-6 -0.05234,0.0096 -0.05273,0.0098 -3.92e-4,1.69e-4 -0.04072,0.029 -0.04102,0.0293 -2.98e-4,2.98e-4 -0.02913,0.04258 -0.0293,0.04297 -1.69e-4,3.93e-4 -0.01171,0.05033 -0.01172,0.05078 v 0.002 0.002 c 6e-6,4.53e-4 0.01155,0.05234 0.01172,0.05273 1.68e-4,3.92e-4 0.029,0.04072 0.0293,0.04102 2.97e-4,2.97e-4 0.04062,0.02913 0.04102,0.0293 3.93e-4,1.69e-4 0.05228,0.01171 0.05273,0.01172 h 0.002 0.002 c 4.53e-4,-6e-6 0.05039,-0.01155 0.05078,-0.01172 3.93e-4,-1.68e-4 0.04267,-0.029 0.04297,-0.0293 2.98e-4,-2.98e-4 0.02913,-0.04062 0.0293,-0.04102 1.68e-4,-3.93e-4 0.0098,-0.05228 0.0098,-0.05273 v -0.002 -0.002 c -5e-6,-4.53e-4 -0.0096,-0.05039 -0.0098,-0.05078 -1.69e-4,-3.93e-4 -0.029,-0.04267 -0.0293,-0.04297 -2.98e-4,-2.98e-4 -0.04258,-0.02913 -0.04297,-0.0293 -3.93e-4,-1.68e-4 -0.05033,-0.0098 -0.05078,-0.0098 h -0.002 z m 0,0.0059 h 0.0039 c -4.53e-4,-6e-6 0.04922,0.0099 0.04883,0.0098 -3.93e-4,-1.69e-4 0.04131,0.02764 0.04102,0.02734 -2.98e-4,-2.98e-4 0.02556,0.04141 0.02539,0.04101 -1.69e-4,-3.92e-4 0.01172,0.04928 0.01172,0.04883 v 0.0039 c 6e-6,-4.54e-4 -0.01189,0.04922 -0.01172,0.04883 1.69e-4,-3.93e-4 -0.02569,0.04131 -0.02539,0.04101 2.97e-4,-2.98e-4 -0.04141,0.02751 -0.04102,0.02734 3.92e-4,-1.69e-4 -0.04928,0.0098 -0.04883,0.0098 h -0.0039 c 4.53e-4,5e-6 -0.04922,-0.0099 -0.04883,-0.0098 3.93e-4,1.69e-4 -0.04131,-0.02764 -0.04102,-0.02734 2.98e-4,2.98e-4 -0.02751,-0.04141 -0.02734,-0.04101 1.69e-4,3.92e-4 -0.0098,-0.04928 -0.0098,-0.04883 v -0.0039 c -5e-6,4.53e-4 0.0099,-0.04922 0.0098,-0.04883 -1.69e-4,3.93e-4 0.02764,-0.04131 0.02734,-0.04101 -2.98e-4,2.97e-4 0.04141,-0.02751 0.04102,-0.02734 -3.92e-4,1.69e-4 0.04928,-0.0098 0.04883,-0.0098 z"
         id="path2952" /></g><path
       style="color:#000000;fill:#1d0e08;stroke-linecap:round;fill-opacity:1"
       d="m 2.1875,12.957031 -34.154297,0.02734 a 0.39687499,0.39687499 0 0 0 -0.396484,0.398438 0.39687499,0.39687499 0 0 0 0.398437,0.396484 L 2.1875,13.75 A 0.39687499,0.39687499 0 0 0 2.5859375,13.353516 0.39687499,0.39687499 0 0 0 2.1875,12.957031 Z"
       id="path2683" /><path
       style="color:#000000;fill:#1d0e08;stroke-linecap:round;fill-opacity:1"
       d="m -31.964844,3.1542969 a 0.39687499,0.39687499 0 0 0 -0.398437,0.3964844 0.39687499,0.39687499 0 0 0 0.398437,0.3964843 H 2.1601563 A 0.39687499,0.39687499 0 0 0 2.5566406,3.5507813 0.39687499,0.39687499 0 0 0 2.1601563,3.1542969 Z"
       id="path2741" /><path
       style="color:#000000;fill:#1d0e08;stroke-linecap:round;fill-opacity:1"
       d="m 53.449219,4.7109375 a 0.39687499,0.39687499 0 0 0 -0.396485,0.3964844 v 6.6406251 a 0.39687499,0.39687499 0 0 0 0.396485,0.396484 0.39687499,0.39687499 0 0 0 0.396484,-0.396484 V 5.1074219 A 0.39687499,0.39687499 0 0 0 53.449219,4.7109375 Z"
       id="path2825" /></g></svg>
