<?xml version="1.0" encoding="UTF-8" standalone="no"?>
<!-- Created with Inkscape (http://www.inkscape.org/) -->

<svg
   width="382.733"
   height="63.957516"
   viewBox="0 0 101.26477 16.922093"
   version="1.1"
   id="svg5"
   inkscape:version="1.2 (dc2aedaf03, 2022-05-15)"
   sodipodi:docname="outline_hot.svg"
   xml:space="preserve"
   xmlns:inkscape="http://www.inkscape.org/namespaces/inkscape"
   xmlns:sodipodi="http://sodipodi.sourceforge.net/DTD/sodipodi-0.dtd"
   xmlns="http://www.w3.org/2000/svg"
   xmlns:svg="http://www.w3.org/2000/svg"><sodipodi:namedview
     id="namedview7"
     pagecolor="#ffffff"
     bordercolor="#666666"
     borderopacity="1.0"
     inkscape:pageshadow="2"
     inkscape:pageopacity="0.0"
     inkscape:pagecheckerboard="0"
     inkscape:document-units="px"
     showgrid="false"
     units="px"
     width="64px"
     inkscape:zoom="1.9769691"
     inkscape:cx="289.83761"
     inkscape:cy="12.64562"
     inkscape:window-width="1920"
     inkscape:window-height="995"
     inkscape:window-x="0"
     inkscape:window-y="0"
     inkscape:window-maximized="1"
     inkscape:current-layer="layer3"
     inkscape:showpageshadow="2"
     inkscape:deskcolor="#d1d1d1"><inkscape:grid
       type="xygrid"
       id="grid9"
       enabled="true"
       originx="37.277891"
       originy="-0.011556841"
       dotted="true"
       spacingx="0.26458334"
       spacingy="0.26458334" /></sodipodi:namedview><defs
     id="defs2"><inkscape:path-effect
       effect="fill_between_many"
       method="originald"
       linkedpaths="#path28174,0,1"
       id="path-effect35015"
       is_visible="true"
       lpeversion="0"
       join="true"
       close="true"
       autoreverse="true"
       applied="false" /><inkscape:path-effect
       effect="fill_between_many"
       method="originald"
       linkedpaths="#path28174,0,1"
       id="path-effect32760"
       is_visible="true"
       lpeversion="0"
       join="true"
       close="true"
       autoreverse="true" /><inkscape:path-effect
       effect="fill_between_many"
       method="originald"
       linkedpaths="#path28174,0,1"
       id="path-effect32760-3"
       is_visible="true"
       lpeversion="0"
       join="true"
       close="true"
       autoreverse="true"
       applied="false" /></defs><g
     inkscape:groupmode="layer"
     id="layer3"
     inkscape:label="Layer 3"
     transform="translate(37.277893,-0.01155684)"><path
       style="color:#000000;fill:#a3be8c;stroke-linecap:round;-inkscape-stroke:none"
       d="m 3.5507813,31.568359 a 0.39687499,0.39687499 0 0 0 -0.3964844,0.396485 c 1e-7,1.897298 1.0131413,3.652913 2.65625,4.601562 1.6431087,0.948649 3.6693912,0.948649 5.3125001,0 1.643109,-0.948649 2.65625,-2.704264 2.65625,-4.601562 a 0.39687499,0.39687499 0 0 0 -0.396484,-0.396485 0.39687499,0.39687499 0 0 0 -0.398438,0.396485 c 0,1.614992 -0.859188,3.106567 -2.257812,3.914062 -1.3986245,0.807496 -3.1209078,0.807496 -4.5195318,0 C 4.8084074,35.07141 3.9472658,33.579836 3.9472656,31.964844 A 0.39687499,0.39687499 0 0 0 3.5507813,31.568359 Z"
       id="path593"
       transform="rotate(90)" /><path
       style="color:#000000;fill:#a3be8c;stroke-linecap:round;-inkscape-stroke:none"
       d="m -13.382813,58.277344 a 0.39687499,0.39687499 0 0 0 -0.396484,0.396484 c 0,1.897299 1.013141,3.652913 2.65625,4.601563 1.6431091,0.948649 3.6693911,0.948649 5.3125001,0 1.6431091,-0.94865 2.6562502,-2.704264 2.65625,-4.601563 a 0.39687499,0.39687499 0 0 0 -0.3964844,-0.396484 0.39687499,0.39687499 0 0 0 -0.3964843,0.396484 c 1e-7,1.614992 -0.8611414,3.106567 -2.2597656,3.914063 -1.3986242,0.807496 -3.1209072,0.807496 -4.5195318,0 -1.398624,-0.807497 -2.257812,-2.299071 -2.257812,-3.914063 a 0.39687499,0.39687499 0 0 0 -0.398438,-0.396484 z"
       id="path593-1"
       transform="rotate(-90)" /><path
       style="color:#000000;fill:#a3be8c;stroke-linecap:round;-inkscape-stroke:none"
       d="M -1.9921875,-3.8730469 A 0.39687499,0.39687499 0 0 0 -2.546875,-3.78125 c -1.3123482,1.8414116 -3.5102921,2.9599498 -5.8730469,2.97460937 -2.3627551,0.0146597 -4.5761171,-1.07519757 -5.9140621,-2.90039067 a 0.39687499,0.39687499 0 0 0 -0.554688,-0.085937 0.39687499,0.39687499 0 0 0 -0.08594,0.5546875 c 1.495231,2.0397596 3.950721,3.24275521 6.5605465,3.22656255 2.6098256,-0.01619251 5.0467052,-1.25023045 6.5136719,-3.30859375 a 0.39687499,0.39687499 0 0 0 -0.091797,-0.5527344 z"
       id="path593-1-4"
       transform="scale(-1)" /><path
       style="color:#000000;fill:#a3be8c;stroke-linecap:round;-inkscape-stroke:none"
       d="m 2.2695313,12.972656 a 0.39687499,0.39687499 0 0 0 -0.2968751,0.06641 0.39687499,0.39687499 0 0 0 -0.095703,0.554687 c 1.4798177,2.100234 3.9657072,3.349225 6.6191407,3.339844 2.6534331,-0.0094 5.1304861,-1.275949 6.5937501,-3.386719 A 0.39687499,0.39687499 0 0 0 14.988281,12.994141 0.39687499,0.39687499 0 0 0 14.4375,13.09375 c -1.308773,1.887916 -3.541073,3.036428 -5.9433594,3.044922 -2.402287,0.0085 -4.6449966,-1.123214 -5.96875,-3.001953 A 0.39687499,0.39687499 0 0 0 2.2695313,12.972656 Z"
       id="path593-1-4-9" /><path
       style="color:#000000;fill:#a3be8c;stroke-linecap:round;-inkscape-stroke:none"
       d="m 14.796875,12.908203 a 0.39687499,0.39687499 0 0 0 -0.396484,0.394531 0.39687499,0.39687499 0 0 0 0.396484,0.398438 l 43.876953,0.07813 a 0.39687499,0.39687499 0 0 0 0.398438,-0.396484 0.39687499,0.39687499 0 0 0 -0.396485,-0.398438 z"
       id="path1635" /><path
       style="color:#000000;fill:#a3be8c;stroke-linecap:round;-inkscape-stroke:none"
       d="m 14.666016,3.0761719 a 0.39687499,0.39687499 0 0 0 -0.398438,0.3964844 0.39687499,0.39687499 0 0 0 0.396485,0.3964843 l 44.009765,0.078125 A 0.39687499,0.39687499 0 0 0 59.072266,3.5527344 0.39687499,0.39687499 0 0 0 58.675781,3.1542969 Z"
       id="path1635-5" /><g
       id="path2681"><path
         style="color:#000000;fill:#000000;stroke-width:0.264583;-inkscape-stroke:none"
         d="m -31.81541,13.349823 a 0.00334245,0.00334245 0 0 1 -0.0033,0.0033 0.00334245,0.00334245 0 0 1 -0.0033,-0.0033 0.00334245,0.00334245 0 0 1 0.0033,-0.0033 0.00334245,0.00334245 0 0 1 0.0033,0.0033 z"
         id="path2950" /><path
         style="color:#000000;fill:#a3be8c;-inkscape-stroke:none"
         d="m -31.820312,13.214844 c -4.54e-4,5e-6 -0.05234,0.0096 -0.05273,0.0098 -3.92e-4,1.69e-4 -0.04072,0.029 -0.04102,0.0293 -2.98e-4,2.98e-4 -0.02913,0.04258 -0.0293,0.04297 -1.69e-4,3.93e-4 -0.01171,0.05033 -0.01172,0.05078 v 0.002 0.002 c 6e-6,4.53e-4 0.01155,0.05234 0.01172,0.05273 1.68e-4,3.92e-4 0.029,0.04072 0.0293,0.04102 2.97e-4,2.97e-4 0.04062,0.02913 0.04102,0.0293 3.93e-4,1.69e-4 0.05228,0.01171 0.05273,0.01172 h 0.002 0.002 c 4.53e-4,-6e-6 0.05039,-0.01155 0.05078,-0.01172 3.93e-4,-1.68e-4 0.04267,-0.029 0.04297,-0.0293 2.98e-4,-2.98e-4 0.02913,-0.04062 0.0293,-0.04102 1.68e-4,-3.93e-4 0.0098,-0.05228 0.0098,-0.05273 v -0.002 -0.002 c -5e-6,-4.53e-4 -0.0096,-0.05039 -0.0098,-0.05078 -1.69e-4,-3.93e-4 -0.029,-0.04267 -0.0293,-0.04297 -2.98e-4,-2.98e-4 -0.04258,-0.02913 -0.04297,-0.0293 -3.93e-4,-1.68e-4 -0.05033,-0.0098 -0.05078,-0.0098 h -0.002 z m 0,0.0059 h 0.0039 c -4.53e-4,-6e-6 0.04922,0.0099 0.04883,0.0098 -3.93e-4,-1.69e-4 0.04131,0.02764 0.04102,0.02734 -2.98e-4,-2.98e-4 0.02556,0.04141 0.02539,0.04101 -1.69e-4,-3.92e-4 0.01172,0.04928 0.01172,0.04883 v 0.0039 c 6e-6,-4.54e-4 -0.01189,0.04922 -0.01172,0.04883 1.69e-4,-3.93e-4 -0.02569,0.04131 -0.02539,0.04101 2.97e-4,-2.98e-4 -0.04141,0.02751 -0.04102,0.02734 3.92e-4,-1.69e-4 -0.04928,0.0098 -0.04883,0.0098 h -0.0039 c 4.53e-4,5e-6 -0.04922,-0.0099 -0.04883,-0.0098 3.93e-4,1.69e-4 -0.04131,-0.02764 -0.04102,-0.02734 2.98e-4,2.98e-4 -0.02751,-0.04141 -0.02734,-0.04101 1.69e-4,3.92e-4 -0.0098,-0.04928 -0.0098,-0.04883 v -0.0039 c -5e-6,4.53e-4 0.0099,-0.04922 0.0098,-0.04883 -1.69e-4,3.93e-4 0.02764,-0.04131 0.02734,-0.04101 -2.98e-4,2.97e-4 0.04141,-0.02751 0.04102,-0.02734 -3.92e-4,1.69e-4 0.04928,-0.0098 0.04883,-0.0098 z"
         id="path2952" /></g><path
       style="color:#000000;fill:#a3be8c;stroke-linecap:round;-inkscape-stroke:none"
       d="m 2.1875,12.957031 -34.154297,0.02734 a 0.39687499,0.39687499 0 0 0 -0.396484,0.398438 0.39687499,0.39687499 0 0 0 0.398437,0.396484 L 2.1875,13.75 A 0.39687499,0.39687499 0 0 0 2.5859375,13.353516 0.39687499,0.39687499 0 0 0 2.1875,12.957031 Z"
       id="path2683" /><path
       style="color:#000000;fill:#a3be8c;stroke-linecap:round;-inkscape-stroke:none"
       d="m -31.964844,3.1542969 a 0.39687499,0.39687499 0 0 0 -0.398437,0.3964844 0.39687499,0.39687499 0 0 0 0.398437,0.3964843 H 2.1601563 A 0.39687499,0.39687499 0 0 0 2.5566406,3.5507813 0.39687499,0.39687499 0 0 0 2.1601563,3.1542969 Z"
       id="path2741" /><path
       style="color:#000000;fill:#a3be8c;stroke-linecap:round;-inkscape-stroke:none"
       d="m 53.449219,4.7109375 a 0.39687499,0.39687499 0 0 0 -0.396485,0.3964844 v 6.6406251 a 0.39687499,0.39687499 0 0 0 0.396485,0.396484 0.39687499,0.39687499 0 0 0 0.396484,-0.396484 V 5.1074219 A 0.39687499,0.39687499 0 0 0 53.449219,4.7109375 Z"
       id="path2825" /></g></svg>
